<mxfile host="drawio-plugin" modified="2023-03-23T21:31:46.446Z" agent="5.0 (Windows NT 6.2; Win64; x64) AppleWebKit/537.36 (KHTML, like Gecko) Chrome/104.0.5112.102 Safari/537.36" etag="a4x10pUUMlPKo5z2LdQZ" version="20.5.3" type="embed"><diagram id="TbBO6vk4nTLV004NzveU" name="Page-1"><mxGraphModel dx="669" dy="639" grid="1" gridSize="10" guides="1" tooltips="1" connect="1" arrows="1" fold="1" page="1" pageScale="1" pageWidth="850" pageHeight="1100" math="0" shadow="0"><root><mxCell id="0"/><mxCell id="1" parent="0"/><mxCell id="w3hjDTiOp9T9BmGMhdes-1" value="" style="shape=folder;fontStyle=1;spacingTop=10;tabWidth=130;tabHeight=30;tabPosition=left;html=1;" parent="1" vertex="1"><mxGeometry x="40" y="360" width="800" height="440" as="geometry"/></mxCell><mxCell id="w3hjDTiOp9T9BmGMhdes-2" value="SOSMessage" style="swimlane;fontStyle=1;align=center;verticalAlign=top;childLayout=stackLayout;horizontal=1;startSize=26;horizontalStack=0;resizeParent=1;resizeParentMax=0;resizeLast=0;collapsible=1;marginBottom=0;" parent="1" vertex="1"><mxGeometry x="590" y="400" width="240" height="232" as="geometry"/></mxCell><mxCell id="w3hjDTiOp9T9BmGMhdes-3" value="+ Recipient: RECIPIENT_TYPE" style="text;strokeColor=none;fillColor=none;align=left;verticalAlign=top;spacingLeft=4;spacingRight=4;overflow=hidden;rotatable=0;points=[[0,0.5],[1,0.5]];portConstraint=eastwest;" parent="w3hjDTiOp9T9BmGMhdes-2" vertex="1"><mxGeometry y="26" width="240" height="26" as="geometry"/></mxCell><mxCell id="w3hjDTiOp9T9BmGMhdes-4" value="" style="line;strokeWidth=1;fillColor=none;align=left;verticalAlign=middle;spacingTop=-1;spacingLeft=3;spacingRight=3;rotatable=0;labelPosition=right;points=[];portConstraint=eastwest;" parent="w3hjDTiOp9T9BmGMhdes-2" vertex="1"><mxGeometry y="52" width="240" height="8" as="geometry"/></mxCell><mxCell id="24" value="+ SOSMessage(&#10;        iD: string,&#10;        contents: string,&#10;        planet_source: PLANET_TYPE,&#10;        planet_destination: PLANET_TYPE,&#10;        message_type: MESSAGE_TYPE,&#10;        Recipient: RECIPIENT_TYPE&#10;   ): void" style="text;strokeColor=none;fillColor=none;align=left;verticalAlign=top;spacingLeft=4;spacingRight=4;overflow=hidden;rotatable=0;points=[[0,0.5],[1,0.5]];portConstraint=eastwest;" parent="w3hjDTiOp9T9BmGMhdes-2" vertex="1"><mxGeometry y="60" width="240" height="120" as="geometry"/></mxCell><mxCell id="25" value="+ getRecipient(): RECIPIENT_TYPE" style="text;strokeColor=none;fillColor=none;align=left;verticalAlign=top;spacingLeft=4;spacingRight=4;overflow=hidden;rotatable=0;points=[[0,0.5],[1,0.5]];portConstraint=eastwest;" vertex="1" parent="w3hjDTiOp9T9BmGMhdes-2"><mxGeometry y="180" width="240" height="26" as="geometry"/></mxCell><mxCell id="26" value="+ validate()(: boolean" style="text;strokeColor=none;fillColor=none;align=left;verticalAlign=top;spacingLeft=4;spacingRight=4;overflow=hidden;rotatable=0;points=[[0,0.5],[1,0.5]];portConstraint=eastwest;" vertex="1" parent="w3hjDTiOp9T9BmGMhdes-2"><mxGeometry y="206" width="240" height="26" as="geometry"/></mxCell><mxCell id="w3hjDTiOp9T9BmGMhdes-6" value="EncryptedMessage" style="swimlane;fontStyle=1;align=center;verticalAlign=top;childLayout=stackLayout;horizontal=1;startSize=26;horizontalStack=0;resizeParent=1;resizeParentMax=0;resizeLast=0;collapsible=1;marginBottom=0;" parent="1" vertex="1"><mxGeometry x="325" y="400" width="230" height="242" as="geometry"/></mxCell><mxCell id="w3hjDTiOp9T9BmGMhdes-7" value="+ Key: string" style="text;strokeColor=none;fillColor=none;align=left;verticalAlign=top;spacingLeft=4;spacingRight=4;overflow=hidden;rotatable=0;points=[[0,0.5],[1,0.5]];portConstraint=eastwest;" parent="w3hjDTiOp9T9BmGMhdes-6" vertex="1"><mxGeometry y="26" width="230" height="26" as="geometry"/></mxCell><mxCell id="w3hjDTiOp9T9BmGMhdes-8" value="" style="line;strokeWidth=1;fillColor=none;align=left;verticalAlign=middle;spacingTop=-1;spacingLeft=3;spacingRight=3;rotatable=0;labelPosition=right;points=[];portConstraint=eastwest;" parent="w3hjDTiOp9T9BmGMhdes-6" vertex="1"><mxGeometry y="52" width="230" height="8" as="geometry"/></mxCell><mxCell id="w3hjDTiOp9T9BmGMhdes-9" value="+ EncryptedMessage(&#10;        iD: string,&#10;        contents: string,&#10;        planet_source: PLANET_TYPE,&#10;        planet_destination: PLANET_TYPE,&#10;        message_type: MESSAGE_TYPE,&#10;        Key: string&#10;   ): void" style="text;strokeColor=none;fillColor=none;align=left;verticalAlign=top;spacingLeft=4;spacingRight=4;overflow=hidden;rotatable=0;points=[[0,0.5],[1,0.5]];portConstraint=eastwest;" parent="w3hjDTiOp9T9BmGMhdes-6" vertex="1"><mxGeometry y="60" width="230" height="130" as="geometry"/></mxCell><mxCell id="22" value="+ getKey(): string" style="text;strokeColor=none;fillColor=none;align=left;verticalAlign=top;spacingLeft=4;spacingRight=4;overflow=hidden;rotatable=0;points=[[0,0.5],[1,0.5]];portConstraint=eastwest;" parent="w3hjDTiOp9T9BmGMhdes-6" vertex="1"><mxGeometry y="190" width="230" height="26" as="geometry"/></mxCell><mxCell id="23" value="+ validate(): boolean" style="text;strokeColor=none;fillColor=none;align=left;verticalAlign=top;spacingLeft=4;spacingRight=4;overflow=hidden;rotatable=0;points=[[0,0.5],[1,0.5]];portConstraint=eastwest;" parent="w3hjDTiOp9T9BmGMhdes-6" vertex="1"><mxGeometry y="216" width="230" height="26" as="geometry"/></mxCell><mxCell id="w3hjDTiOp9T9BmGMhdes-10" value="NormalMessage" style="swimlane;fontStyle=1;align=center;verticalAlign=top;childLayout=stackLayout;horizontal=1;startSize=26;horizontalStack=0;resizeParent=1;resizeParentMax=0;resizeLast=0;collapsible=1;marginBottom=0;" parent="1" vertex="1"><mxGeometry x="50" y="400" width="240" height="222" as="geometry"/></mxCell><mxCell id="w3hjDTiOp9T9BmGMhdes-11" value="+ MESSAGE_LENGTH: int" style="text;strokeColor=none;fillColor=none;align=left;verticalAlign=top;spacingLeft=4;spacingRight=4;overflow=hidden;rotatable=0;points=[[0,0.5],[1,0.5]];portConstraint=eastwest;" parent="w3hjDTiOp9T9BmGMhdes-10" vertex="1"><mxGeometry y="26" width="240" height="26" as="geometry"/></mxCell><mxCell id="w3hjDTiOp9T9BmGMhdes-12" value="" style="line;strokeWidth=1;fillColor=none;align=left;verticalAlign=middle;spacingTop=-1;spacingLeft=3;spacingRight=3;rotatable=0;labelPosition=right;points=[];portConstraint=eastwest;" parent="w3hjDTiOp9T9BmGMhdes-10" vertex="1"><mxGeometry y="52" width="240" height="8" as="geometry"/></mxCell><mxCell id="20" value="+ NormalMessage(&#10;        iD:string&#10;        contents: string,&#10;        planet_source: PLANET_TYPE,&#10;        planet_destination: PLANET_TYPE,&#10;        message_type: MESSAGE_TYPE&#10;    ): void" style="text;strokeColor=none;fillColor=none;align=left;verticalAlign=top;spacingLeft=4;spacingRight=4;overflow=hidden;rotatable=0;points=[[0,0.5],[1,0.5]];portConstraint=eastwest;" parent="w3hjDTiOp9T9BmGMhdes-10" vertex="1"><mxGeometry y="60" width="240" height="110" as="geometry"/></mxCell><mxCell id="19" value="+ getMessageLength(): int" style="text;strokeColor=none;fillColor=none;align=left;verticalAlign=top;spacingLeft=4;spacingRight=4;overflow=hidden;rotatable=0;points=[[0,0.5],[1,0.5]];portConstraint=eastwest;" parent="w3hjDTiOp9T9BmGMhdes-10" vertex="1"><mxGeometry y="170" width="240" height="26" as="geometry"/></mxCell><mxCell id="21" value="+ validate(): booleam" style="text;strokeColor=none;fillColor=none;align=left;verticalAlign=top;spacingLeft=4;spacingRight=4;overflow=hidden;rotatable=0;points=[[0,0.5],[1,0.5]];portConstraint=eastwest;" parent="w3hjDTiOp9T9BmGMhdes-10" vertex="1"><mxGeometry y="196" width="240" height="26" as="geometry"/></mxCell><mxCell id="w3hjDTiOp9T9BmGMhdes-14" value="Employee" style="swimlane;fontStyle=1;align=center;verticalAlign=top;childLayout=stackLayout;horizontal=1;startSize=26;horizontalStack=0;resizeParent=1;resizeParentMax=0;resizeLast=0;collapsible=1;marginBottom=0;" parent="1" vertex="1"><mxGeometry x="660" y="100" width="160" height="138" as="geometry"/></mxCell><mxCell id="w3hjDTiOp9T9BmGMhdes-15" value="+ EmployeeID: string" style="text;strokeColor=none;fillColor=none;align=left;verticalAlign=top;spacingLeft=4;spacingRight=4;overflow=hidden;rotatable=0;points=[[0,0.5],[1,0.5]];portConstraint=eastwest;" parent="w3hjDTiOp9T9BmGMhdes-14" vertex="1"><mxGeometry y="26" width="160" height="26" as="geometry"/></mxCell><mxCell id="w3hjDTiOp9T9BmGMhdes-20" value="+ FirstName: string" style="text;strokeColor=none;fillColor=none;align=left;verticalAlign=top;spacingLeft=4;spacingRight=4;overflow=hidden;rotatable=0;points=[[0,0.5],[1,0.5]];portConstraint=eastwest;" parent="w3hjDTiOp9T9BmGMhdes-14" vertex="1"><mxGeometry y="52" width="160" height="26" as="geometry"/></mxCell><mxCell id="w3hjDTiOp9T9BmGMhdes-18" value="+ LastName: string" style="text;strokeColor=none;fillColor=none;align=left;verticalAlign=top;spacingLeft=4;spacingRight=4;overflow=hidden;rotatable=0;points=[[0,0.5],[1,0.5]];portConstraint=eastwest;" parent="w3hjDTiOp9T9BmGMhdes-14" vertex="1"><mxGeometry y="78" width="160" height="26" as="geometry"/></mxCell><mxCell id="w3hjDTiOp9T9BmGMhdes-19" value="+ shipData: Ship" style="text;strokeColor=none;fillColor=none;align=left;verticalAlign=top;spacingLeft=4;spacingRight=4;overflow=hidden;rotatable=0;points=[[0,0.5],[1,0.5]];portConstraint=eastwest;" parent="w3hjDTiOp9T9BmGMhdes-14" vertex="1"><mxGeometry y="104" width="160" height="26" as="geometry"/></mxCell><mxCell id="w3hjDTiOp9T9BmGMhdes-16" value="" style="line;strokeWidth=1;fillColor=none;align=left;verticalAlign=middle;spacingTop=-1;spacingLeft=3;spacingRight=3;rotatable=0;labelPosition=right;points=[];portConstraint=eastwest;" parent="w3hjDTiOp9T9BmGMhdes-14" vertex="1"><mxGeometry y="130" width="160" height="8" as="geometry"/></mxCell><mxCell id="2" value="accse.csc2a.model" style="text;html=1;strokeColor=none;fillColor=none;align=left;verticalAlign=middle;whiteSpace=wrap;rounded=0;" parent="1" vertex="1"><mxGeometry x="50" y="360" width="70" height="30" as="geometry"/></mxCell></root></mxGraphModel></diagram></mxfile>